Coordinates
version=1
nRows=38
nColumns=12
inDegrees=yes

Units are S.I. units (second, meters, Newtons, ...)
Angles are in degrees

endheader
time	SC_y	SC_z	SC_x	AC_y	AC_z	AC_x	GH_y	GH_z	GH_yy	EL_x	PS_y
       0.0              -13.45          16.09          17.38          37.17         0.9973            3.2         -115.1          3.174         -78.86          23.13          61.36
   0.02391              -13.45          16.09          17.38          37.17         0.9984          3.201         -115.1          3.175         -78.86          23.14          61.36
   0.04781              -13.45          16.08          17.38          37.17         0.9996          3.202         -115.1          3.176         -78.85          23.15          61.36
   0.07172              -13.46          16.08          17.37          37.17          1.001          3.203         -115.1          3.177         -78.84          23.16          61.35
   0.09562              -13.46          16.08          17.37          37.17          1.002          3.204         -115.0          3.178         -78.84          23.17          61.35
    0.1195              -13.46          16.08          17.37          37.17          1.003          3.205         -115.0          3.179         -78.83          23.18          61.35
    0.1434              -13.46          16.08          17.37          37.17          1.005          3.207         -115.0           3.18         -78.82          23.19          61.35
    0.1673              -13.46          16.07          17.37          37.18          1.006          3.208         -114.9          3.181         -78.82           23.2          61.35
    0.1912              -13.46          16.07          17.36          37.18          1.008          3.209         -114.9          3.183         -78.81          23.21          61.34
    0.2152              -13.46          16.07          17.36          37.18           1.01          3.211         -114.9          3.184          -78.8          23.23          61.34
    0.2391              -13.46          16.07          17.36          37.18          1.012          3.213         -114.8          3.186         -78.79          23.24          61.34
     0.263              -13.46          16.06          17.35          37.19          1.014          3.214         -114.8          3.187         -78.78          23.26          61.34
    0.2869              -13.46          16.06          17.35          37.19          1.016          3.216         -114.7          3.189         -78.77          23.27          61.33
    0.3108              -13.46          16.06          17.35          37.19          1.019          3.218         -114.7          3.191         -78.75          23.29          61.33
    0.3347              -13.46          16.05          17.34          37.19          1.021           3.22         -114.6          3.193         -78.74          23.31          61.32
    0.3586              -13.46          16.05          17.34           37.2          1.024          3.223         -114.6          3.196         -78.73          23.33          61.32
    0.3825              -13.47          16.04          17.34           37.2          1.027          3.225         -114.5          3.198         -78.71          23.35          61.32
    0.4064              -13.47          16.04          17.33          37.21           1.03          3.228         -114.4          3.201         -78.69          23.38          61.31
    0.4303              -13.47          16.03          17.32          37.21          1.034          3.231         -114.4          3.204         -78.67          23.41          61.31
    0.4542              -13.47          16.03          17.32          37.22          1.038          3.235         -114.3          3.207         -78.65          23.44           61.3
    0.4781              -13.47          16.02          17.31          37.22          1.043          3.238         -114.2          3.211         -78.63          23.47          61.29
     0.502              -13.47          16.01          17.31          37.23          1.047          3.243         -114.1          3.215         -78.61           23.5          61.29
    0.5259              -13.48          16.01           17.3          37.23          1.053          3.247         -114.0          3.219         -78.58          23.54          61.28
    0.5498              -13.48           16.0          17.29          37.24          1.059          3.252         -113.8          3.224         -78.55          23.59          61.27
    0.5737              -13.48          15.99          17.28          37.25          1.065          3.258         -113.7          3.229         -78.52          23.64          61.26
    0.5977              -13.48          15.98          17.27          37.26          1.073          3.264         -113.5          3.235         -78.48          23.69          61.25
    0.6216              -13.49          15.97          17.26          37.27          1.081          3.271         -113.4          3.242         -78.44          23.75          61.24
    0.6455              -13.49          15.95          17.24          37.28           1.09          3.279         -113.2           3.25         -78.39          23.82          61.22
    0.6694               -13.5          15.94          17.23          37.29          1.101          3.287         -112.9          3.258         -78.34           23.9          61.21
    0.6933               -13.5          15.92          17.21          37.31          1.113          3.297         -112.7          3.268         -78.28          23.99          61.19
    0.7172              -13.51           15.9          17.19          37.32          1.126          3.309         -112.4          3.279         -78.21          24.09          61.17
    0.7411              -13.51          15.88          17.17          37.34          1.142          3.322         -112.1          3.292         -78.13          24.21          61.15
     0.765              -13.52          15.85          17.14          37.37           1.16          3.337         -111.7          3.307         -78.04          24.34          61.12
    0.7889              -13.53          15.82          17.11          37.39          1.181          3.355         -111.2          3.324         -77.93          24.49          61.09
    0.8128              -13.54          15.79          17.07          37.42          1.205          3.376         -110.7          3.344         -77.81          24.68          61.06
    0.8367              -13.55          15.74          17.03          37.46          1.234            3.4         -110.1          3.368         -77.66          24.89          61.02
    0.8606              -13.57          15.69          16.98           37.5          1.268          3.429         -109.4          3.396         -77.48          25.14          60.97
    0.8845              -13.58          15.63          16.92          37.55           1.31          3.463         -108.5           3.43         -77.28          25.45          60.91
